<?xml version="1.0" ?><!DOCTYPE svg  PUBLIC '-//W3C//DTD SVG 1.1//EN'  'http://www.w3.org/Graphics/SVG/1.1/DTD/svg11.dtd'><svg height="512px" style="enable-background:new 0 0 512 512;" version="1.1" viewBox="0 0 512 512" width="512px" xml:space="preserve" xmlns="http://www.w3.org/2000/svg" xmlns:xlink="http://www.w3.org/1999/xlink"><g id="_x34_98_x2C__student__x2C__notes__x2C__note_x2C__education"><g><path d="M461,93.31v390H61v-200v-190h33.52c-0.03,0.02-0.06,0.04-0.09,0.06h355.24    c0.65,0,1.3-0.02,1.95-0.06H461z" style="fill:#F0F1F1;"/><path d="M71.47,294.81v-190h33.52c-0.03,0.02-0.06,0.04-0.09,0.06h355.24c0.287,0,0.573-0.019,0.86-0.026    V93.31h-9.38c-0.65,0.04-1.3,0.06-1.95,0.06H94.43c0.03-0.02,0.06-0.04,0.09-0.06H61v190v200h10.47V294.81z" style="fill:#DEE0E0;"/><rect height="30" style="fill:#FF7979;" width="40" x="361" y="403.31"/><polygon points="367.75,410.685 401,410.685 401,403.31 361,403.31 361,433.31 367.75,433.31   " style="fill:#D65B5B;"/><rect height="160" style="fill:#FEBE76;" width="40" x="361" y="243.31"/><polygon points="368.125,251.56 401,251.56 401,243.31 361,243.31 361,403.31 368.125,403.31   " style="fill:#E8A664;"/><polygon points="381,183.31 401,243.31 361,243.31   " style="fill:#57606F;"/><polygon points="384.958,195.185 381,183.31 361,243.31 368.917,243.31   " style="fill:#414A56;"/><path d="M471.9,39.58c5.64,5.76,9.1,13.7,9.1,22.46c0,16.41-12.8,30.26-29.38,31.27H94.52    c10.54-6.46,17.42-18.41,17.42-31.73c0-12.9-6.45-24.42-16.59-31.33h354.32C458.42,30.25,466.26,33.82,471.9,39.58z" style="fill:#FFEBBE;"/><g><g><g><path d="M105.574,40.583H452.91c8.75,0,16.59,3.57,22.23,9.33c2.217,2.265,4.091,4.87,5.557,7.726       c-0.948-7.002-4.119-13.282-8.797-18.06c-5.641-5.76-13.48-9.33-22.23-9.33H95.35C99.415,33.02,102.873,36.54,105.574,40.583z" style="fill:#E5D0A8;"/></g><g><path d="M115.18,71.914c0-5.857-1.341-11.423-3.742-16.409c0.319,1.983,0.502,4.009,0.502,6.076       c0,13.32-6.88,25.27-17.42,31.73h14.048C112.742,87.231,115.18,79.819,115.18,71.914z" style="fill:#E5D0A8;"/></g></g></g><path d="M95.35,30.25c10.14,6.91,16.59,18.43,16.59,31.33c0,13.32-6.88,25.27-17.42,31.73H61v190H31v-210    c0-26.26,20.12-46.75,46.38-44.44L95.35,30.25z" style="fill:#F0DCA0;"/><path d="M39,80.643c0-26.26,20.12-46.75,46.38-44.44l17.97,1.38c0.003,0.002,0.007,0.005,0.01,0.008    c-2.295-2.798-4.984-5.278-8.01-7.341l-17.97-1.38C51.12,26.56,31,47.05,31,73.31v210h8V80.643z" style="fill:#DDC792;"/><rect height="20" width="20" x="311" y="133.31"/><rect height="20" width="20" x="271" y="133.31"/><rect height="20" width="20" x="231" y="133.31"/><rect height="20" width="20" x="191" y="133.31"/><path d="M461,488.31H61c-2.761,0-5-2.238-5-5v-390c0-2.761,2.239-5,5-5h400c2.762,0,5,2.239,5,5v390    C466,486.071,463.762,488.31,461,488.31z M66,478.31h390v-380H66V478.31z"/><path d="M449.67,98.37H94.43c-2.761,0-5-2.239-5-5s2.239-5,5-5h355.24c0.548,0,1.095-0.017,1.643-0.051    C465.157,87.476,476,75.933,476,62.04c0-7.175-2.725-13.909-7.672-18.962c-4.943-5.048-11.569-7.828-18.658-7.828H95.35    c-2.761,0-5-2.239-5-5s2.239-5,5-5h354.32c9.8,0,18.963,3.847,25.803,10.832C482.262,43.015,486,52.234,486,62.04    c0,19.169-14.968,35.097-34.076,36.261C451.178,98.347,450.419,98.37,449.67,98.37z"/><path d="M61,288.31H31c-2.761,0-5-2.238-5-5v-210c0-14.581,5.807-28.262,15.932-37.535c9.663-8.851,22.406-13.071,35.886-11.886    l17.915,1.375c0.872,0.067,1.71,0.361,2.433,0.854c11.755,8.011,18.774,21.268,18.774,35.462c0,2.761-2.239,5-5,5s-5-2.239-5-5    c0-10.453-4.968-20.246-13.353-26.451l-16.59-1.274c-10.706-0.943-20.741,2.361-28.312,9.294C40.624,50.534,36,61.527,36,73.31    v205h25c2.761,0,5,2.238,5,5S63.761,288.31,61,288.31z"/><path d="M94.483,98.32c-1.613,0-3.198-0.763-4.158-2.191c-1.54-2.292-0.976-5.369,1.316-6.909    c0.058-0.039,0.207-0.137,0.266-0.173c9.272-5.683,15.033-16.208,15.033-27.467c0-2.761,2.239-5,5-5s5,2.239,5,5    c0,14.704-7.581,28.488-19.785,35.979C96.329,98.073,95.401,98.32,94.483,98.32z"/><path d="M321,198.31H101c-2.761,0-5-2.239-5-5s2.239-5,5-5h220c2.762,0,5,2.239,5,5S323.762,198.31,321,198.31z"/><path d="M321,238.31H101c-2.761,0-5-2.239-5-5s2.239-5,5-5h220c2.762,0,5,2.239,5,5S323.762,238.31,321,238.31z"/><path d="M321,278.31H101c-2.761,0-5-2.238-5-5s2.239-5,5-5h220c2.762,0,5,2.238,5,5S323.762,278.31,321,278.31z"/><path d="M321,318.31H101c-2.761,0-5-2.238-5-5s2.239-5,5-5h220c2.762,0,5,2.238,5,5S323.762,318.31,321,318.31z"/><path d="M321,358.31H101c-2.761,0-5-2.238-5-5s2.239-5,5-5h220c2.762,0,5,2.238,5,5S323.762,358.31,321,358.31z"/><path d="M321,398.31H101c-2.761,0-5-2.238-5-5s2.239-5,5-5h220c2.762,0,5,2.238,5,5S323.762,398.31,321,398.31z"/><path d="M321,438.31h-65.18c-2.761,0-5-2.238-5-5s2.239-5,5-5H321c2.762,0,5,2.238,5,5S323.762,438.31,321,438.31z"/><path d="M401,408.31c-2.762,0-5-2.238-5-5v-160c0-2.761,2.238-5,5-5s5,2.239,5,5v160C406,406.071,403.762,408.31,401,408.31z"/><path d="M361,408.31c-2.762,0-5-2.238-5-5v-160c0-2.761,2.238-5,5-5s5,2.239,5,5v160C366,406.071,363.762,408.31,361,408.31z"/><path d="M401,438.31h-40c-2.762,0-5-2.238-5-5v-30c0-2.762,2.238-5,5-5h40c2.762,0,5,2.238,5,5v30    C406,436.071,403.762,438.31,401,438.31z M366,428.31h30v-20h-30V428.31z"/><path d="M401,248.31h-40c-1.607,0-3.116-0.772-4.057-2.077c-0.939-1.304-1.195-2.98-0.687-4.504l20-60    c0.681-2.042,2.591-3.419,4.743-3.419s4.063,1.377,4.743,3.419l20,60c0.509,1.524,0.253,3.201-0.687,4.504    C404.116,247.538,402.607,248.31,401,248.31z M367.938,238.31h26.125L381,199.122L367.938,238.31z"/><path d="M431,408.31h-30c-2.762,0-5-2.238-5-5s2.238-5,5-5h25v-65c0-2.762,2.238-5,5-5s5,2.238,5,5v70    C436,406.071,433.762,408.31,431,408.31z"/></g></g><g id="Layer_1"/></svg>